<svg width="168" height="168" viewBox="0 0 168 168" fill="none" xmlns="http://www.w3.org/2000/svg">
<path d="M101.644 56.1035C100.69 55.9413 99.7128 55.9727 98.7713 56.1959C97.8297 56.419 96.9427 56.8293 96.1631 57.4024C95.2987 58.0438 94.5704 58.8507 94.0207 59.7761C93.471 60.7016 93.1107 61.7271 92.9609 62.793L92.0903 68.7422C91.7486 70.7822 92.2103 72.8753 93.3786 74.5821C94.547 76.289 96.331 77.4769 98.3564 77.8965C99.3103 78.0602 100.287 78.0295 101.229 77.8063C102.171 77.5832 103.058 77.1721 103.837 76.5977C104.701 75.9563 105.43 75.1494 105.979 74.2239C106.529 73.2985 106.889 72.273 107.039 71.2071L107.91 65.2579C108.251 63.2179 107.79 61.1248 106.621 59.418C105.453 57.7111 103.669 56.5232 101.644 56.1035ZM103.952 64.6778L103.081 70.628C103.01 71.1663 102.832 71.685 102.558 72.1541C102.285 72.6232 101.921 73.0332 101.487 73.3604C101.139 73.6202 100.743 73.8067 100.321 73.9086C99.8985 74.0104 99.4602 74.0256 99.0322 73.9532C98.0337 73.7149 97.1659 73.1001 96.6099 72.2372C96.0539 71.3743 95.8527 70.33 96.0483 69.3223L96.9189 63.3721C96.9904 62.8338 97.168 62.315 97.4416 61.846C97.7152 61.3769 98.0793 60.9669 98.5127 60.6397C99.0693 60.2282 99.7424 60.0045 100.435 60.001C100.613 60.0007 100.792 60.0161 100.968 60.0469C101.966 60.2852 102.834 60.9 103.39 61.7629C103.946 62.6257 104.147 63.6701 103.952 64.6778ZM122 107.128L126 112.638V103.566C124.786 104.341 123.423 104.855 122 105.076V107.128Z" fill="#8D9A8C"/>
<path d="M42 60V126C42.0017 127.591 42.6344 129.116 43.7593 130.241C44.8841 131.366 46.4092 131.998 48 132H113.255L109.608 128H48C47.4698 127.999 46.9614 127.788 46.5865 127.414C46.2115 127.039 46.0006 126.53 46 126V60C46.0006 59.4698 46.2115 58.9614 46.5865 58.5865C46.9614 58.2115 47.4698 58.0006 48 58H90.4161C91.2933 56.4041 92.5301 55.0346 94.0287 54H48C46.4092 54.0017 44.8841 54.6344 43.7593 55.7593C42.6344 56.8841 42.0017 58.4092 42 60ZM122.878 84.8398C123.985 85.1118 125.04 85.5649 126 86.1809V60C125.998 58.4092 125.366 56.8841 124.241 55.7593C123.116 54.6344 121.591 54.0017 120 54H106.789C108.288 55.0391 109.53 56.4073 110.42 58H120C120.53 58.0006 121.039 58.2115 121.414 58.5865C121.788 58.9614 121.999 59.4698 122 60V84.6255L122.878 84.8398Z" fill="#8D9A8C"/>
<path d="M118 83.6492V64C118 63.4696 117.789 62.9609 117.414 62.5858C117.039 62.2107 116.53 62 116 62H111.82C112.036 63.2684 112.052 64.5626 111.868 65.8359L111.844 66H114V82.6729L118 83.6492ZM68.3047 20C68.898 20 69.478 19.8241 69.9714 19.4944C70.4647 19.1648 70.8493 18.6962 71.0763 18.1481C71.3034 17.5999 71.3628 16.9967 71.247 16.4147C71.1313 15.8328 70.8456 15.2982 70.426 14.8787C70.0065 14.4591 69.4719 14.1734 68.89 14.0576C68.308 13.9419 67.7048 14.0013 67.1566 14.2284C66.6085 14.4554 66.1399 14.8399 65.8103 15.3333C65.4806 15.8266 65.3047 16.4067 65.3047 17C65.3056 17.7954 65.622 18.5579 66.1844 19.1203C66.7468 19.6827 67.5093 19.9991 68.3047 20ZM68.3047 15.5C68.6014 15.5 68.8914 15.588 69.138 15.7528C69.3847 15.9176 69.577 16.1519 69.6905 16.426C69.804 16.7001 69.8337 17.0017 69.7759 17.2926C69.718 17.5836 69.5751 17.8509 69.3653 18.0607C69.1556 18.2704 68.8883 18.4133 68.5973 18.4712C68.3063 18.5291 68.0047 18.4994 67.7307 18.3858C67.4566 18.2723 67.2223 18.08 67.0575 17.8334C66.8927 17.5867 66.8047 17.2967 66.8047 17C66.8051 16.6023 66.9632 16.221 67.2445 15.9398C67.5257 15.6586 67.907 15.5004 68.3047 15.5ZM161.305 68.9466C160.909 68.9466 160.522 69.0639 160.194 69.2836C159.865 69.5034 159.608 69.8158 159.457 70.1812C159.306 70.5467 159.266 70.9488 159.343 71.3368C159.42 71.7247 159.611 72.0811 159.89 72.3608C160.17 72.6405 160.527 72.831 160.915 72.9081C161.302 72.9853 161.705 72.9457 162.07 72.7943C162.436 72.643 162.748 72.3866 162.968 72.0577C163.187 71.7288 163.305 71.3421 163.305 70.9466C163.304 70.4163 163.093 69.908 162.718 69.533C162.343 69.1581 161.835 68.9472 161.305 68.9466ZM161.305 71.9466C161.107 71.9466 160.914 71.8879 160.749 71.7781C160.585 71.6682 160.457 71.512 160.381 71.3293C160.305 71.1465 160.285 70.9455 160.324 70.7515C160.362 70.5575 160.458 70.3793 160.598 70.2395C160.737 70.0996 160.916 70.0044 161.11 69.9658C161.304 69.9272 161.505 69.947 161.687 70.0227C161.87 70.0984 162.026 70.2266 162.136 70.391C162.246 70.5555 162.305 70.7488 162.305 70.9466C162.304 71.2117 162.199 71.4659 162.012 71.6534C161.824 71.8409 161.57 71.9463 161.305 71.9466ZM89.3333 37C88.9377 37 88.5511 37.1173 88.2222 37.3371C87.8933 37.5568 87.6369 37.8692 87.4855 38.2346C87.3342 38.6001 87.2946 39.0022 87.3717 39.3902C87.4489 39.7781 87.6394 40.1345 87.9191 40.4142C88.1988 40.6939 88.5552 40.8844 88.9431 40.9616C89.3311 41.0387 89.7332 40.9991 90.0987 40.8478C90.4641 40.6964 90.7765 40.44 90.9962 40.1111C91.216 39.7822 91.3333 39.3956 91.3333 39C91.3327 38.4698 91.1218 37.9614 90.7468 37.5865C90.3719 37.2115 89.8636 37.0006 89.3333 37ZM89.3333 40C89.1355 40 88.9422 39.9414 88.7777 39.8315C88.6133 39.7216 88.4851 39.5654 88.4094 39.3827C88.3337 39.2 88.3139 38.9989 88.3525 38.8049C88.3911 38.6109 88.4863 38.4327 88.6262 38.2929C88.7661 38.153 88.9442 38.0578 89.1382 38.0192C89.3322 37.9806 89.5333 38.0004 89.716 38.0761C89.8987 38.1518 90.0549 38.28 90.1648 38.4444C90.2747 38.6089 90.3333 38.8022 90.3333 39C90.333 39.2651 90.2276 39.5193 90.0401 39.7068C89.8526 39.8943 89.5984 39.9997 89.3333 40ZM158.305 17C157.909 17 157.522 17.1173 157.194 17.3371C156.865 17.5568 156.608 17.8692 156.457 18.2346C156.306 18.6001 156.266 19.0022 156.343 19.3902C156.42 19.7781 156.611 20.1345 156.89 20.4142C157.17 20.6939 157.527 20.8844 157.915 20.9616C158.302 21.0387 158.705 20.9991 159.07 20.8478C159.436 20.6964 159.748 20.44 159.968 20.1111C160.187 19.7822 160.305 19.3956 160.305 19C160.304 18.4698 160.093 17.9614 159.718 17.5865C159.343 17.2115 158.835 17.0006 158.305 17ZM158.305 20C158.107 20 157.914 19.9414 157.749 19.8315C157.585 19.7216 157.457 19.5654 157.381 19.3827C157.305 19.2 157.285 18.9989 157.324 18.8049C157.362 18.6109 157.458 18.4327 157.598 18.2929C157.737 18.153 157.916 18.0578 158.11 18.0192C158.304 17.9806 158.505 18.0004 158.687 18.0761C158.87 18.1518 159.026 18.28 159.136 18.4444C159.246 18.6089 159.305 18.8022 159.305 19C159.304 19.2651 159.199 19.5193 159.012 19.7068C158.824 19.8943 158.57 19.9997 158.305 20ZM17.3047 39C17.3047 38.6044 17.1874 38.2178 16.9676 37.8889C16.7479 37.56 16.4355 37.3036 16.0701 37.1522C15.7046 37.0009 15.3025 36.9613 14.9145 37.0384C14.5265 37.1156 14.1702 37.3061 13.8905 37.5858C13.6108 37.8655 13.4203 38.2219 13.3431 38.6098C13.2659 38.9978 13.3056 39.3999 13.4569 39.7654C13.6083 40.1308 13.8646 40.4432 14.1935 40.6629C14.5224 40.8827 14.9091 41 15.3047 41C15.8349 40.9994 16.3433 40.7885 16.7182 40.4135C17.0932 40.0386 17.3041 39.5302 17.3047 39ZM14.3047 39C14.3047 38.8022 14.3633 38.6089 14.4732 38.4444C14.5831 38.28 14.7393 38.1518 14.922 38.0761C15.1047 38.0004 15.3058 37.9806 15.4998 38.0192C15.6938 38.0578 15.8719 38.153 16.0118 38.2929C16.1516 38.4327 16.2469 38.6109 16.2855 38.8049C16.3241 38.9989 16.3043 39.2 16.2286 39.3827C16.1529 39.5654 16.0247 39.7216 15.8603 39.8315C15.6958 39.9414 15.5025 40 15.3047 40C15.0396 39.9997 14.7854 39.8943 14.5979 39.7068C14.4104 39.5193 14.305 39.2651 14.3047 39Z" fill="#38412F"/>
<path d="M10.8879 80.011L12.3749 78.056L11.4359 77.524L10.4809 79.714H10.4499L9.47995 77.539L8.52495 78.087L9.99595 79.996V80.027L7.69495 79.73V80.794L10.0109 80.497V80.528L8.52495 82.436L9.41595 83L10.4339 80.794H10.4649L11.4039 82.984L12.3899 82.421L10.8879 80.543V80.512L13.2499 80.794V79.73L10.8879 80.042V80.011Z" fill="#8D9A8C"/>
<path d="M52.081 45.067L51.225 46.166L51.739 46.49L52.325 45.22H52.342L52.883 46.481L53.451 46.157L52.586 45.075V45.057L53.946 45.22V44.607L52.586 44.787V44.769L53.442 43.643L52.902 43.337L52.352 44.598H52.334L51.775 43.345L51.225 43.661L52.072 44.76V44.778L50.747 44.607V45.22L52.081 45.049V45.067Z" fill="#8D9A8C"/>
<path d="M144.177 49.697V48.654L141.86 48.961V48.93L143.318 47.012L142.397 46.49L141.461 48.638H141.43L140.479 46.505L139.542 47.043L140.985 48.915V48.946L138.728 48.654V49.697L141 49.406V49.437L139.542 51.309L140.416 51.862L141.415 49.697H141.445L142.366 51.846L143.333 51.294L141.86 49.452V49.421L144.177 49.697Z" fill="#8D9A8C"/>
<path d="M118.351 23.788L119.609 22.133L118.815 21.683L118.008 23.536H117.981L117.16 21.696L116.352 22.16L117.597 23.775V23.801L115.65 23.55V24.45L117.61 24.199V24.225L116.352 25.84L117.106 26.317L117.968 24.45H117.994L118.788 26.303L119.622 25.827L118.351 24.238V24.212L120.35 24.45V23.55L118.351 23.814V23.788Z" fill="#8D9A8C"/>
<path d="M2 140C3.10457 140 4 139.105 4 138C4 136.895 3.10457 136 2 136C0.89543 136 0 136.895 0 138C0 139.105 0.89543 140 2 140Z" fill="#38412F"/>
<path d="M11 136H8C7.46957 136 6.96086 136.211 6.58579 136.586C6.21071 136.961 6 137.47 6 138C6 138.53 6.21071 139.039 6.58579 139.414C6.96086 139.789 7.46957 140 8 140H11C11.5304 140 12.0391 139.789 12.4142 139.414C12.7893 139.039 13 138.53 13 138C13 137.47 12.7893 136.961 12.4142 136.586C12.0391 136.211 11.5304 136 11 136ZM160 136H157C156.47 136 155.961 136.211 155.586 136.586C155.211 136.961 155 137.47 155 138C155 138.53 155.211 139.039 155.586 139.414C155.961 139.789 156.47 140 157 140H160C160.53 140 161.039 139.789 161.414 139.414C161.789 139.039 162 138.53 162 138C162 137.47 161.789 136.961 161.414 136.586C161.039 136.211 160.53 136 160 136Z" fill="#38412F"/>
<path d="M166 140C167.105 140 168 139.105 168 138C168 136.895 167.105 136 166 136C164.895 136 164 136.895 164 138C164 139.105 164.895 140 166 140Z" fill="#38412F"/>
<path d="M118.154 144H109.846C109.343 144.04 108.874 144.268 108.532 144.639C108.19 145.01 108 145.496 108 146C108 146.504 108.19 146.99 108.532 147.361C108.874 147.732 109.343 147.96 109.846 148H118.154C118.657 147.96 119.126 147.732 119.468 147.361C119.81 146.99 120 146.504 120 146C120 145.496 119.81 145.01 119.468 144.639C119.126 144.268 118.657 144.04 118.154 144ZM58.1539 144H49.8462C49.3434 144.04 48.8742 144.268 48.5321 144.639C48.19 145.01 48 145.496 48 146C48 146.504 48.19 146.99 48.5321 147.361C48.8742 147.732 49.3434 147.96 49.8462 148H58.1539C58.6567 147.96 59.1258 147.732 59.468 147.361C59.8101 146.99 60.0001 146.504 60.0001 146C60.0001 145.496 59.8101 145.01 59.468 144.639C59.1258 144.268 58.6567 144.04 58.1539 144ZM104 144H64C63.4696 144 62.9609 144.211 62.5858 144.586C62.2107 144.961 62 145.47 62 146C62 146.53 62.2107 147.039 62.5858 147.414C62.9609 147.789 63.4696 148 64 148H79.94V150H72C71.4696 150 70.9609 150.211 70.5858 150.586C70.2107 150.961 70 151.47 70 152C70 152.53 70.2107 153.039 70.5858 153.414C70.9609 153.789 71.4696 154 72 154H97C97.5305 154 98.0392 153.789 98.4142 153.414C98.7893 153.039 99 152.53 99 152C99 151.47 98.7893 150.961 98.4142 150.586C98.0392 150.211 97.5305 150 97 150H88.06V148H104C104.53 148 105.039 147.789 105.414 147.414C105.789 147.039 106 146.53 106 146C106 145.47 105.789 144.961 105.414 144.586C105.039 144.211 104.53 144 104 144Z" fill="#8D9A8C"/>
<path d="M150.721 136H134.512C134.888 135.034 135.015 133.988 134.881 132.96C134.747 131.932 134.357 130.954 133.747 130.116L117.765 108.104C116.53 106.408 114.933 105.01 113.089 104.011L103.884 99.0381L104.076 98.3243L119.293 101.1C120.912 101.395 122.583 101.047 123.95 100.131C125.318 99.215 126.274 97.8021 126.617 96.1922C126.96 94.5824 126.663 92.9022 125.787 91.5082C124.912 90.1143 123.528 89.1161 121.929 88.7256L107.564 85.2189C107.928 83.2561 107.62 81.228 106.691 79.4614C105.643 80.3132 104.451 80.9703 103.172 81.4017C103.614 82.2865 103.781 83.2833 103.652 84.2639L102.803 84.0566C102.287 83.9314 101.744 84.0158 101.291 84.2913C100.837 84.5669 100.512 85.0111 100.387 85.5262C100.261 86.0414 100.345 86.5854 100.62 87.0386C100.896 87.4919 101.339 87.8173 101.854 87.9434L120.98 92.6123C121.406 92.7162 121.793 92.9378 122.098 93.2518C122.403 93.5659 122.614 93.9595 122.705 94.3876C122.797 94.8158 122.766 95.261 122.616 95.6723C122.466 96.0836 122.203 96.4443 121.857 96.7129C121.599 96.9157 121.301 97.0609 120.983 97.1388C120.664 97.2166 120.333 97.2252 120.011 97.1641L95.8448 92.7569L94.981 86.5381C94.9448 86.278 94.8578 86.0275 94.7248 85.801C94.5919 85.5745 94.4156 85.3764 94.2061 85.218C93.9965 85.0596 93.7579 84.9441 93.5037 84.8779C93.2495 84.8118 92.9848 84.7964 92.7247 84.8325C92.4645 84.8687 92.214 84.9557 91.9875 85.0887C91.761 85.2217 91.5629 85.3979 91.4046 85.6075C91.2462 85.817 91.1306 86.0556 91.0645 86.3098C90.9984 86.564 90.9829 86.8287 91.0191 87.0889L92.0816 94.7402C92.1397 95.1571 92.3277 95.545 92.6189 95.8488C92.9101 96.1526 93.2897 96.3569 93.7037 96.4326L100.127 97.6042L99.6104 99.5264C99.4934 99.9612 99.5265 100.423 99.7045 100.836C99.8824 101.25 100.195 101.592 100.591 101.806L111.188 107.53C112.505 108.244 113.646 109.242 114.528 110.453L130.51 132.466C130.752 132.798 130.896 133.19 130.928 133.6C130.961 134.009 130.879 134.419 130.693 134.785C130.506 135.15 130.222 135.457 129.872 135.672C129.522 135.886 129.12 136 128.709 136C128.4 136 128.094 135.935 127.811 135.81C127.528 135.685 127.274 135.502 127.065 135.273L110.733 117.361C110.116 116.682 109.323 116.186 108.441 115.929L95.9624 112.278C94.4715 111.84 92.8684 111.999 91.4927 112.722L86 115.599V86.5C85.9939 84.7725 86.5048 83.0827 87.4669 81.648C88.4289 80.2132 89.7983 79.099 91.3987 78.4488C90.4548 77.4636 89.6829 76.327 89.1152 75.0864C88.2974 75.4873 87.5246 75.9743 86.8101 76.5391C86.5246 76.7657 86.2623 77.0129 86 77.2598V66H88.449L89.003 62.2139C89.0136 62.1413 89.032 62.0721 89.0438 62H52C51.4696 62 50.9609 62.2107 50.5858 62.5858C50.2107 62.9609 50 63.4696 50 64V122C50 122.53 50.2107 123.039 50.5858 123.414C50.9609 123.789 51.4696 124 52 124H105.961L105.388 123.371L93.8627 120H86.2192L93.3486 116.265C93.8072 116.023 94.342 115.971 94.8389 116.118L107.319 119.769C107.495 119.82 107.653 119.919 107.776 120.055L122.314 136H17.2787C16.9942 135.963 16.705 135.987 16.4305 136.07C16.1559 136.154 15.9024 136.295 15.6867 136.484C15.4711 136.673 15.2983 136.907 15.18 137.168C15.0616 137.429 15.0004 137.713 15.0004 138C15.0004 138.287 15.0616 138.571 15.18 138.832C15.2983 139.093 15.4711 139.327 15.6867 139.516C15.9024 139.705 16.1559 139.846 16.4305 139.93C16.705 140.013 16.9942 140.037 17.2787 140H150.721C151.006 140.037 151.295 140.013 151.57 139.93C151.844 139.846 152.098 139.705 152.313 139.516C152.529 139.327 152.702 139.093 152.82 138.832C152.938 138.571 153 138.287 153 138C153 137.713 152.938 137.429 152.82 137.168C152.702 136.907 152.529 136.673 152.313 136.484C152.098 136.295 151.844 136.154 151.57 136.07C151.295 135.987 151.006 135.963 150.721 136ZM82 120H54V66H82V120Z" fill="#38412F"/>
</svg>
