<svg width="300" height="90" viewBox="0 0 300 90" fill="none" xmlns="http://www.w3.org/2000/svg">
<g clip-path="url(#clip0_2_103)">
<path d="M183.113 79.8501H116.046V64.8596H183.113V79.8501Z" fill="black"/>
<path d="M114.398 64.8596H184.763V9.49756H114.398V64.8596Z" fill="white"/>
<path d="M149.578 17.3491C163.368 17.3491 175.594 24.1394 183.113 34.5516V11.1511H116.049V34.5423C123.561 24.1363 135.79 17.3491 149.578 17.3491Z" fill="black"/>
<path d="M149.578 19.0028C135.615 19.0028 123.287 26.1355 116.049 36.9519V63.2061H183.113V36.9611C175.875 26.1417 163.544 19.0028 149.578 19.0028Z" fill="black"/>
<path d="M149.578 19.0027C163.544 19.0027 175.875 26.1416 183.113 36.9611V34.5516C175.594 24.1394 163.368 17.3491 149.578 17.3491C135.79 17.3491 123.561 24.1363 116.049 34.5424V36.9518C123.287 26.1355 135.615 19.0027 149.578 19.0027Z" fill="white"/>
<path d="M122.654 46.5496C122.512 46.8242 122.41 47.0833 122.324 47.3302C119.628 48.1384 117.832 47.4226 117.715 47.3702C117.446 47.2592 117.135 47.3814 117.024 47.651C116.907 47.9194 117.031 48.2279 117.301 48.3421C117.425 48.3975 119.294 49.1627 122.083 48.49C122.083 48.524 122.077 48.5641 122.077 48.5979C122.077 49.3816 122.407 49.9184 122.839 50.1991C124.051 50.9889 126.717 50.3133 130.582 46.3643C130.335 47.077 130.11 47.8606 129.965 48.6689C129.959 48.7029 129.956 48.7399 129.956 48.7708C129.956 48.9928 130.089 49.1934 130.296 49.2767C130.712 49.4464 130.953 49.1009 131.166 48.7954L131.702 47.9964C132.165 47.2991 133.211 45.7257 133.921 44.9051C133.834 45.3555 133.745 45.8646 133.745 46.349C133.745 47.003 133.905 47.5984 134.433 47.91C134.874 48.1661 135.583 48.2555 137.123 47.3393C137.249 47.6971 137.512 47.8637 137.66 47.9347C138.644 48.3913 140.492 47.4041 142.423 45.5592C142.164 46.1422 141.963 46.6297 141.914 46.8333C141.901 46.8888 141.896 46.9443 141.896 46.9938C141.896 47.2375 142.044 47.4134 142.217 47.4936C142.64 47.6788 142.911 47.3085 143.124 47.0031L143.707 46.1639C144.188 45.4513 145.324 43.7791 145.987 43.085C146.184 43.5663 146.533 44.171 147.165 44.5258C146.98 44.9391 146.891 45.297 146.891 45.5963C146.891 45.9665 147.027 46.2441 147.304 46.4323C147.801 46.7717 148.554 46.5866 149.34 46.1578C146.832 48.6474 145.678 51.1279 145.641 52.2292C145.641 52.2471 145.641 52.2725 145.641 52.2908C145.641 52.9048 145.944 53.1515 146.129 53.2441C146.508 53.4353 146.974 53.3151 147.514 52.8893C149.402 51.3869 150.778 47.8267 151.482 45.6486C152.426 44.8773 153.527 44.1307 154.795 43.4489C154.385 44.1708 154.15 44.8527 154.15 45.4049C154.15 45.6023 154.181 45.7874 154.24 45.9479C154.385 46.3335 154.696 46.5803 155.094 46.6235C155.964 46.7159 157.171 45.8028 158.593 44.0505C158.472 44.3991 158.352 44.7385 158.232 45.0686C154.283 48.1815 152.509 51.5072 152.281 53.312C152.263 53.4571 152.25 53.5927 152.25 53.7192C152.25 54.438 152.54 54.7712 152.805 54.9224C153.107 55.0921 153.616 55.1754 154.369 54.6016C155.202 53.963 157.195 50.8408 159.123 45.698C161.684 43.7328 165.195 41.8478 169.866 40.5582C170.1 40.4935 170.254 40.2805 170.254 40.0461C170.254 40.0029 170.248 39.9536 170.236 39.9073C170.156 39.6234 169.866 39.463 169.582 39.5371C165.504 40.6693 162.274 42.2488 159.75 43.958C160.049 43.0664 160.349 42.1223 160.639 41.129C160.654 41.0795 160.661 41.0302 160.661 40.981C160.661 40.7804 160.544 40.5861 160.349 40.4997C160.109 40.3918 159.828 40.4773 159.686 40.6972C157.058 44.8312 155.564 45.5809 155.237 45.5747C155.22 45.5378 155.203 45.4883 155.203 45.4142C155.203 44.9422 155.608 43.7637 156.91 42.3846C157.002 42.2859 157.058 42.1532 157.058 42.0206C157.058 41.9156 157.021 41.8108 156.959 41.7213C156.814 41.5178 156.548 41.4375 156.317 41.5362C154.657 42.2365 153.226 43.0695 151.979 43.9518C151.995 43.9024 152.004 43.8623 152.007 43.8468C152.016 43.8005 152.025 43.7604 152.025 43.7172C152.025 43.5229 151.914 43.3408 151.738 43.2514C151.729 43.2446 151.72 43.2446 151.71 43.2424C152.074 42.9555 152.448 42.6408 152.843 42.2768C153.256 41.8912 153.364 41.5425 153.364 41.2803C153.364 41.1661 153.342 41.0737 153.318 40.9965C153.197 40.6232 152.852 40.3795 152.377 40.3209C151.208 40.1852 149.36 41.1754 147.7 43.6157C147.135 43.3134 146.913 42.573 146.811 42.2367L146.768 42.101C146.7 41.8789 146.5 41.7401 146.265 41.7432C145.907 41.7457 145.522 41.9931 144.92 42.6996C144.929 42.6839 144.936 42.6656 144.948 42.6532C144.982 42.5791 144.994 42.5021 144.994 42.4249C144.994 42.2429 144.905 42.0702 144.741 41.9714C144.507 41.8295 144.204 41.8882 144.044 42.1071C141.098 46.0745 138.515 47.179 138.114 46.9785C138.112 46.9673 138.101 46.9384 138.101 46.8706C138.101 46.8242 138.108 46.7595 138.119 46.6823C138.779 46.2103 139.557 45.5963 140.479 44.7942C141.33 44.0538 141.528 43.4522 141.528 43.0573C141.528 42.8753 141.485 42.7395 141.448 42.6531C141.275 42.2428 140.852 42.0145 140.343 42.0608C139.251 42.1564 137.884 43.4368 137.196 46.0406C135.487 47.2068 135.025 47.0309 134.963 46.9939C134.732 46.8582 134.75 46.127 135.015 44.822C135.129 44.2389 135.185 43.9767 135.055 43.7329C134.926 43.4954 134.704 43.3566 134.448 43.3442C133.892 43.3164 133.263 43.8995 131.955 45.7475C132.473 44.5166 132.979 43.6712 132.988 43.6558C133.041 43.5694 133.066 43.4769 133.066 43.3812C133.066 43.2178 132.988 43.0542 132.84 42.9493C132.618 42.7888 132.307 42.832 132.128 43.048C127.478 48.7215 124.319 49.9 123.415 49.3139C123.224 49.1874 123.128 48.9406 123.128 48.6135C123.128 48.4779 123.151 48.3236 123.184 48.16C124.924 47.54 126.935 46.3522 129.067 44.1679C130.323 42.8815 130.999 41.6752 130.999 40.7589C130.999 40.5552 130.964 40.364 130.897 40.1912C130.712 39.713 130.28 39.4261 129.721 39.3953C128.052 39.3183 125.22 41.4993 122.653 46.5496M129.672 40.4535C129.866 40.4625 129.897 40.5399 129.916 40.5768C129.931 40.6231 129.943 40.6879 129.943 40.7588C129.943 41.2216 129.539 42.1718 128.308 43.4305C126.661 45.1181 125.103 46.1639 123.711 46.8026C126.158 42.0978 128.654 40.4041 129.672 40.4535ZM140.093 43.2269C140.266 43.1345 140.39 43.1159 140.46 43.1159C140.436 43.2424 140.3 43.5447 139.785 43.9982C139.399 44.3283 139.044 44.6307 138.717 44.8929C139.257 43.7637 139.868 43.3441 140.093 43.2269ZM151.826 41.4098C152.02 41.3635 152.153 41.3635 152.236 41.3729C152.208 41.4098 152.178 41.4501 152.119 41.5025C150.907 42.6285 149.836 43.3443 148.991 43.622C150.314 41.9035 151.465 41.4931 151.826 41.4098ZM150.231 44.2359C149.207 45.1398 148.275 45.5563 147.945 45.5594C147.952 45.4575 147.994 45.2293 148.201 44.8005C148.802 44.8251 149.478 44.637 150.231 44.2359ZM149.821 47.1606C149.102 49.0116 148.081 51.0848 146.856 52.0597C146.794 52.106 146.742 52.1461 146.698 52.1739C146.754 51.4118 147.689 49.3571 149.821 47.1606ZM153.31 53.7164C153.31 53.4727 153.362 53.084 153.56 52.5255C154.044 51.1404 155.263 49.169 157.416 47.1513C155.793 51.0355 154.278 53.3338 153.723 53.7658C153.541 53.9046 153.415 53.9632 153.347 53.9847C153.324 53.9353 153.31 53.8552 153.31 53.7164Z" fill="white"/>
<path d="M168.449 28.6591C168.119 28.6591 167.829 28.8566 167.709 29.162C167.709 29.162 164.806 36.6094 164.473 37.4578C163.563 37.5102 155.621 37.9268 155.621 37.9268C155.202 37.9514 154.872 38.3001 154.872 38.7165C154.872 38.7322 154.872 38.7475 154.872 38.7598C154.896 39.1948 155.267 39.531 155.708 39.5094L165.068 39.0128C165.377 38.9971 165.651 38.7998 165.765 38.5099C165.765 38.5099 167.536 33.9563 168.446 31.627C169.35 33.9532 171.115 38.4852 171.115 38.4852C171.229 38.7721 171.501 38.9665 171.806 38.985C171.806 38.985 176.64 39.2626 179.108 39.4076C177.205 40.9872 173.469 44.0939 173.469 44.0939C173.284 44.2482 173.179 44.4672 173.179 44.7017C173.179 44.7695 173.188 44.8344 173.203 44.8991C173.203 44.8991 174.404 49.5885 175.021 51.9918C172.941 50.6497 168.887 48.0336 168.887 48.0336C168.628 47.8639 168.292 47.8639 168.033 48.0311C168.033 48.0311 163.936 50.6411 161.813 51.9892C162.461 49.6538 163.624 45.4519 163.624 45.4519C163.64 45.3841 163.649 45.31 163.649 45.2422C163.649 44.8935 163.421 44.5758 163.069 44.4802C162.646 44.3628 162.208 44.6098 162.094 45.0324L159.74 53.5534C159.65 53.865 159.768 54.2044 160.03 54.3987C160.292 54.5931 160.65 54.6022 160.928 54.4296C160.928 54.4296 167.687 50.1259 168.455 49.6385C169.217 50.129 175.863 54.4173 175.863 54.4173C176.137 54.5931 176.489 54.5839 176.754 54.3949C176.961 54.2407 177.084 54.0031 177.084 53.7532C177.084 53.6885 177.075 53.6176 177.057 53.5558C177.057 53.5558 175.085 45.8616 174.863 44.9916C175.551 44.4177 181.666 39.3397 181.666 39.3397C181.848 39.1854 181.953 38.9602 181.953 38.7319C181.953 38.6455 181.937 38.5653 181.91 38.4851C181.811 38.1735 181.53 37.9606 181.206 37.9421C181.206 37.9421 173.314 37.4886 172.404 37.4362C172.074 36.5878 169.183 29.1619 169.183 29.1619C169.066 28.8596 168.773 28.6591 168.449 28.6591Z" fill="white"/>
<mask id="mask0_2_103" style="mask-type:luminance" maskUnits="userSpaceOnUse" x="114" y="64" width="71" height="18">
<path d="M114.398 64.4987H184.763V81.4975H114.398V64.4987Z" fill="white"/>
</mask>
<g mask="url(#mask0_2_103)">
<path d="M183.113 64.8596V79.8501H116.046V64.8596H114.398V81.4975H184.763V64.8596H183.113Z" fill="white"/>
</g>
<path d="M118.94 76.549V68.1606H123.262V69.0923H120.007V71.7856H123.027V72.7173H120.007V75.6173H123.33V76.549H118.94Z" fill="white"/>
<path d="M130.419 68.1606V76.549H128.957L125.647 69.2774H125.622V76.549H124.669V68.1606H126.177L129.445 75.3396H129.467V68.1606H130.419Z" fill="white"/>
<path d="M131.903 76.549V68.1606H136.226V69.0923H132.971V71.7856H135.991V72.7173H132.971V75.6173H136.293V76.549H131.903Z" fill="white"/>
<path d="M138.65 69.0893H140.264C141.088 69.0893 141.39 69.765 141.39 70.3666C141.39 71.1008 141.02 71.7641 140.252 71.7641H138.65V69.0893ZM139.903 72.6927C140.264 72.6927 141.088 72.739 141.171 73.7602C141.263 74.877 141.193 75.9691 141.495 76.5491H142.612C142.448 76.0277 142.331 74.7134 142.322 74.3525C142.263 72.668 141.914 72.3441 140.949 72.1929V72.1683C141.936 71.9955 142.482 71.2397 142.482 70.2525C142.482 69.2066 141.961 68.1608 140.471 68.1608H137.58V76.5491H138.65V72.6927L139.903 72.6927Z" fill="white"/>
<path d="M147.659 70.4035C147.659 69.4132 147.252 68.8795 146.169 68.8795C145.832 68.8795 144.626 68.9381 144.626 70.6935V73.5288C144.626 75.3644 145.16 75.8271 146.169 75.8271C146.937 75.8271 147.449 75.6205 147.671 75.4569V72.9488H146.126V72.017H148.739V76.0986C148.054 76.4689 147.252 76.7249 146.169 76.7249C144.392 76.7249 143.534 75.8055 143.534 73.4825V70.7275C143.534 69.0554 144.392 67.9879 146.169 67.9879C147.983 67.9879 148.843 68.6481 148.773 70.4035H147.659Z" fill="white"/>
<path d="M153.86 68.1606H154.937L152.651 73.3529V76.549H151.583V73.3529L149.328 68.1606H150.525L152.163 72.2145L153.86 68.1606Z" fill="white"/>
<path d="M158.549 74.0501V74.2938C158.549 75.4323 159.271 75.7932 159.956 75.7932C160.804 75.7932 161.455 75.4323 161.455 74.4358C161.455 72.5754 157.689 72.7852 157.689 70.2616C157.689 68.7777 158.747 67.9879 160.153 67.9879C161.687 67.9879 162.548 68.7283 162.477 70.4375H161.36C161.373 69.5181 161.082 68.9165 160.073 68.9165C159.432 68.9165 158.784 69.2405 158.784 70.1475C158.784 71.9955 162.548 71.7301 162.548 74.3864C162.548 76.1542 161.326 76.7249 159.944 76.7249C157.469 76.7473 157.469 74.8522 157.494 74.0501H158.549Z" fill="white"/>
<path d="M168.511 68.1606V69.0923H166.305V76.549H165.235V69.0923H163.029V68.1606H168.511Z" fill="white"/>
<path d="M172.284 73.6213H169.6L170.911 69.1479H170.936L172.284 73.6213ZM167.626 76.549H168.705L169.332 74.5499H172.574L173.179 76.549H174.376L171.645 68.1606H170.285L167.626 76.549Z" fill="white"/>
<path d="M176.267 69.0893H177.884C178.707 69.0893 179.01 69.765 179.01 70.3666C179.01 71.1008 178.633 71.7641 177.868 71.7641H176.267V69.0893ZM177.523 72.6927C177.884 72.6927 178.707 72.739 178.787 73.7602C178.88 74.877 178.812 75.9691 179.114 76.5491H180.228C180.065 76.0277 179.951 74.7134 179.938 74.3525C179.88 72.668 179.531 72.3441 178.568 72.1929V72.1683C179.553 71.9955 180.099 71.2397 180.099 70.2525C180.099 69.2066 179.577 68.1608 178.09 68.1608H175.196V76.5491H176.267V72.6927L177.523 72.6927Z" fill="white"/>
</g>
<defs>
<clipPath id="clip0_2_103">
<rect width="70.3649" height="72" fill="white" transform="translate(114.398 9.49756)"/>
</clipPath>
</defs>
</svg>
