<svg width="300" height="90" viewBox="0 0 300 90" fill="none" xmlns="http://www.w3.org/2000/svg">
<g clip-path="url(#clip0_2_72)">
<path fill-rule="evenodd" clip-rule="evenodd" d="M40.1694 40.1187C40.1694 30.9662 45.783 25.2306 55.4237 25.2306C65.0643 25.2306 70.6779 30.9662 70.6779 40.1187C70.6779 49.2713 65.0643 55.0069 55.4237 55.0069C45.661 55.0069 40.1694 49.1492 40.1694 40.1187ZM55.4237 49.8814C58.2304 49.8814 60.6711 48.9052 62.2576 47.1967C63.844 45.4882 64.8203 42.9255 64.8203 39.9967C64.8203 37.0679 63.966 34.5052 62.2576 32.7967C60.5491 30.9662 58.2304 30.1119 55.3016 30.1119C52.4949 30.1119 50.0542 31.0882 48.4677 32.7967C46.8813 34.5052 45.905 37.0679 45.905 39.9967C45.905 43.0475 46.7593 45.4882 48.4677 47.1967C50.1762 49.0272 52.4949 49.8814 55.4237 49.8814Z" fill="white"/>
<path d="M90.4474 54.3966V41.705C90.4474 38.4101 88.7389 36.4576 85.8101 36.4576C82.8813 36.4576 81.1728 38.5321 81.1728 41.705V54.5186H75.6813V32.5525H81.1728V35.7254C82.7592 33.8949 84.8338 32.1864 88.3728 32.1864C93.0101 32.1864 95.8169 35.3593 95.8169 40.3627V54.6406L90.4474 54.3966ZM113.512 53.6643C112.536 54.2745 110.949 54.7627 108.874 54.7627C105.091 54.7627 102.529 53.1762 102.529 48.1728V36.7016H99.844V32.4305H102.529V26.8169H108.02V32.4305H113.39V36.7016H108.02V47.0745C108.02 49.0271 108.997 50.0033 110.827 50.0033C111.803 50.0033 113.024 49.7593 113.634 49.3932V53.6643H113.512Z" fill="white"/>
<path fill-rule="evenodd" clip-rule="evenodd" d="M118.759 33.7728C121.078 32.7966 123.397 32.1864 126.936 32.1864C133.77 32.1864 136.698 35.7254 136.698 41.705V54.5186H131.573V52.444C129.865 53.7864 127.546 54.8847 124.129 54.8847C120.102 54.8847 116.807 52.5661 116.807 48.2949V48.1728C116.807 43.1695 120.468 40.9728 125.471 40.9728C127.912 40.9728 129.987 41.3389 131.695 41.8271V41.3389C131.695 38.1661 129.62 36.4576 125.959 36.4576C123.519 36.4576 121.322 37.0678 119.736 37.6779L118.759 33.7728ZM126.081 51.2237C129.254 51.2237 131.573 49.3932 131.573 46.7084V45.122L131.085 44.8779C129.987 44.3898 128.4 44.1457 126.936 44.1457C123.885 44.1457 122.054 45.6101 122.054 47.8067V48.0508C122.054 50.0033 123.641 51.2237 126.081 51.2237Z" fill="white"/>
<path d="M142.19 54.3965V32.4304H147.559V36.8237C149.024 33.7728 150.854 31.8203 154.881 31.9423V36.7016H154.759C152.807 36.7016 151.098 37.3118 149.878 38.4101C148.292 39.8745 147.437 42.1931 147.437 45.244V54.3965H142.19Z" fill="white"/>
<path fill-rule="evenodd" clip-rule="evenodd" d="M165.132 29.1355V24.3762H159.397V29.1355H165.132ZM159.519 32.4305H165.01V54.3966H159.519V32.4305ZM169.892 43.5355C169.892 36.4576 174.407 32.0644 181.851 32.0644C189.295 32.0644 193.688 36.4576 193.81 43.5355C193.81 50.6135 189.295 55.0067 181.851 55.0067C174.285 55.0067 169.892 50.4915 169.892 43.5355ZM181.851 50.3694C183.803 50.3694 185.512 49.7593 186.61 48.5389C187.708 47.3186 188.319 45.6101 188.319 43.4135C188.319 41.3389 187.708 39.5084 186.61 38.2881C185.39 37.0677 183.803 36.3355 181.851 36.3355C179.898 36.3355 178.19 36.9457 177.092 38.166C175.993 39.3864 175.383 41.0949 175.383 43.2915C175.383 45.3661 175.993 47.1966 177.092 48.4169C178.19 49.7593 179.776 50.3694 181.851 50.3694Z" fill="white"/>
<path d="M232.373 9C213.702 9 204.915 17.7864 204.915 36.5797C204.915 55.2509 213.702 64.1593 232.373 64.1593C251.044 64.1593 259.831 55.2509 259.831 36.5797C259.831 17.7864 251.044 9 232.373 9Z" fill="black"/>
<path fill-rule="evenodd" clip-rule="evenodd" d="M232.373 24.7423C237.986 20.9593 245.064 20.4711 251.166 23.3999L251.41 23.522V23.766C251.166 26.5728 250.312 29.3796 248.969 31.8203C247.261 34.7491 244.942 37.0677 242.013 38.7762C241.891 38.8982 241.769 38.8982 241.525 39.0203L240.793 39.3864C241.281 46.2203 238.23 52.566 232.617 56.3491L232.373 56.4711L232.251 56.3491C229.932 54.7626 227.858 52.566 226.515 50.1254C224.807 47.1965 223.952 43.9016 223.952 40.6067C223.952 40.2406 223.952 39.7525 224.074 39.3864C217.973 36.3355 214.068 30.5999 213.58 23.766V23.522L213.824 23.3999C216.386 22.1796 219.193 21.4474 222 21.4474C225.295 21.4474 228.59 22.3016 231.397 24.0101C231.641 24.3762 232.007 24.4982 232.373 24.7423ZM239.451 34.9932C241.525 33.7728 243.356 32.0643 244.698 29.8677C245.308 28.7694 245.797 27.6711 246.163 26.6948C242.746 25.8406 239.207 26.4508 236.156 28.1593C236.4 28.5254 236.644 28.8915 236.766 29.5016C237.01 29.9898 237.01 30.722 236.888 31.3321C236.766 31.5762 236.766 31.8203 236.644 32.0643C236.034 33.1626 234.691 33.8948 233.105 34.383C233.715 32.4304 232.739 30.844 231.519 29.7457C230.908 29.1355 230.176 28.7694 229.444 28.2813C227.369 27.0609 224.929 26.3287 222.366 26.3287C221.146 26.3287 219.925 26.4508 218.827 26.8169C219.925 30.2338 222 32.9186 225.051 34.8711C225.295 34.383 225.539 34.1389 225.905 33.6508C226.271 33.1626 226.881 32.7965 227.369 32.6745C227.613 32.5525 227.858 32.5525 228.102 32.5525C229.322 32.5525 230.664 33.2847 231.885 34.383C229.932 34.8711 228.956 36.4576 228.712 38.044C228.59 38.8982 228.468 39.7525 228.468 40.4847C228.468 42.9254 229.078 45.366 230.298 47.5626C230.908 48.661 231.641 49.6372 232.495 50.3694C234.936 47.6847 236.156 44.5118 236.278 40.8508C235.79 40.9728 235.424 40.8508 234.813 40.7287C234.325 40.6067 233.715 40.2406 233.227 39.8745C233.105 39.6304 232.861 39.5084 232.739 39.2643C232.129 38.166 232.129 36.7016 232.495 35.1152C233.837 36.5796 235.79 36.5796 237.254 36.0915C237.986 35.7254 238.719 35.4813 239.451 34.9932Z" fill="white"/>
<path d="M43.8411 70.3966V59.8529H47.9122C48.5028 59.8529 49.0178 59.9749 49.4571 60.219C49.8964 60.463 50.2381 60.7925 50.4822 61.2075C50.7263 61.6175 50.8483 62.0715 50.8483 62.5694C50.8483 63.1356 50.697 63.6408 50.3943 64.085C50.0917 64.5243 49.6865 64.8294 49.1789 65.0003L49.1642 64.6415C49.8476 64.8367 50.3846 65.1784 50.7751 65.6666C51.1656 66.1547 51.3609 66.7454 51.3609 67.4385C51.3609 68.0487 51.2315 68.5759 50.9728 69.0201C50.7141 69.4594 50.3504 69.7986 49.8818 70.0378C49.4132 70.277 48.8689 70.3966 48.249 70.3966H43.8411ZM44.9248 69.3642H47.9854C48.415 69.3642 48.8006 69.2885 49.1423 69.1372C49.484 68.981 49.7524 68.7614 49.9477 68.4782C50.1478 68.1951 50.2479 67.8534 50.2479 67.4531C50.2479 67.0626 50.1576 66.7112 49.977 66.3988C49.7964 66.0864 49.5499 65.8374 49.2375 65.6519C48.9299 65.4616 48.5785 65.3664 48.1831 65.3664H44.9248V69.3642ZM44.9248 64.3486H47.9049C48.2417 64.3486 48.5492 64.2729 48.8274 64.1216C49.1057 63.9654 49.3253 63.7531 49.4864 63.4846C49.6524 63.2161 49.7354 62.9062 49.7354 62.5547C49.7354 62.0568 49.5621 61.6517 49.2155 61.3392C48.8738 61.0268 48.4369 60.8706 47.9049 60.8706H44.9248V64.3486ZM55.8461 70.5943C55.3726 70.5943 54.9577 70.5211 54.6013 70.3746C54.2499 70.2282 53.9497 70.0305 53.7007 69.7816C53.4566 69.5326 53.2589 69.2495 53.1076 68.9322C52.9563 68.61 52.8465 68.2708 52.7781 67.9144C52.7098 67.5532 52.6756 67.1944 52.6756 66.8381V62.4888H53.7593V66.5233C53.7593 66.9577 53.8008 67.3604 53.8838 67.7314C53.9667 68.1024 54.0985 68.427 54.2791 68.7052C54.4646 68.9786 54.7014 69.1909 54.9894 69.3422C55.2823 69.4936 55.6362 69.5692 56.0511 69.5692C56.4318 69.5692 56.7662 69.5033 57.0542 69.3715C57.3471 69.2397 57.5911 69.0518 57.7864 68.8077C57.9865 68.5588 58.1379 68.2586 58.2404 67.9071C58.3429 67.5508 58.3941 67.1505 58.3941 66.7063L59.1556 66.8747C59.1556 67.685 59.0141 68.366 58.7309 68.9176C58.4478 69.4691 58.0573 69.8865 57.5594 70.1696C57.0615 70.4527 56.4904 70.5943 55.8461 70.5943ZM58.504 70.3966V68.4489H58.3941V62.4888H59.4705V70.3966H58.504ZM61.6634 60.9878V59.7797H62.7398V60.9878H61.6634ZM61.6634 70.3966V62.4888H62.7398V70.3966H61.6634ZM65.0813 70.3966V59.6332H66.1577V70.3966H65.0813ZM71.4207 70.6163C70.6836 70.6163 70.0539 70.4332 69.5316 70.0671C69.0093 69.6961 68.609 69.1958 68.3308 68.5661C68.0526 67.9364 67.9135 67.2262 67.9135 66.4354C67.9135 65.6495 68.0501 64.9417 68.3235 64.312C68.6017 63.6823 68.9996 63.1844 69.517 62.8183C70.0344 62.4522 70.6543 62.2691 71.3768 62.2691C72.1187 62.2691 72.7436 62.4498 73.2512 62.811C73.7589 63.1722 74.1421 63.6677 74.4008 64.2974C74.6644 64.9222 74.7962 65.6348 74.7962 66.4354C74.7962 67.2213 74.6668 67.9315 74.4081 68.5661C74.1494 69.1958 73.7686 69.6961 73.2659 70.0671C72.7631 70.4332 72.148 70.6163 71.4207 70.6163ZM71.5305 69.6131C72.0919 69.6131 72.5556 69.4765 72.9217 69.2031C73.2878 68.9298 73.5612 68.5539 73.7418 68.0755C73.9224 67.5923 74.0127 67.0456 74.0127 66.4354C74.0127 65.8155 73.9224 65.2687 73.7418 64.7953C73.5612 64.3169 73.2878 63.9435 72.9217 63.675C72.5605 63.4065 72.1041 63.2723 71.5525 63.2723C70.9863 63.2723 70.5177 63.4114 70.1467 63.6896C69.7757 63.9679 69.4999 64.3462 69.3193 64.8245C69.1436 65.3029 69.0557 65.8399 69.0557 66.4354C69.0557 67.0358 69.146 67.5776 69.3266 68.0609C69.5121 68.5393 69.7879 68.9176 70.154 69.1958C70.5201 69.474 70.9789 69.6131 71.5305 69.6131ZM74.0127 70.3966V64.4438H73.8956V59.8529H74.9792V70.3966H74.0127ZM77.1798 60.9878V59.7797H78.2562V60.9878H77.1798ZM77.1798 70.3966V62.4888H78.2562V70.3966H77.1798ZM86.1625 70.3966V66.3622C86.1625 65.9228 86.121 65.5201 86.038 65.154C85.955 64.783 85.8208 64.4609 85.6353 64.1875C85.4547 63.9093 85.2179 63.6945 84.9251 63.5432C84.6371 63.3919 84.2856 63.3162 83.8707 63.3162C83.4899 63.3162 83.1531 63.3821 82.8602 63.5139C82.5722 63.6457 82.3282 63.8361 82.128 64.085C81.9328 64.3291 81.7839 64.6268 81.6814 64.9783C81.5789 65.3298 81.5276 65.73 81.5276 66.1791L80.7661 66.0107C80.7661 65.2004 80.9077 64.5195 81.1908 63.9679C81.4739 63.4163 81.8644 62.9989 82.3623 62.7158C82.8602 62.4327 83.4314 62.2911 84.0757 62.2911C84.5492 62.2911 84.9617 62.3643 85.3131 62.5108C85.6695 62.6572 85.9697 62.8549 86.2137 63.1039C86.4627 63.3528 86.6628 63.6384 86.8141 63.9605C86.9655 64.2778 87.0753 64.6171 87.1436 64.9783C87.212 65.3346 87.2461 65.691 87.2461 66.0473V70.3966H86.1625ZM80.444 70.3966V62.4888H81.4178V64.4365H81.5276V70.3966H80.444ZM92.2874 74.1308C91.8822 74.1308 91.4819 74.0698 91.0865 73.9478C90.696 73.8306 90.3348 73.6427 90.0029 73.384C89.671 73.1302 89.3927 72.7982 89.1682 72.3882L90.142 71.8464C90.3617 72.2857 90.6692 72.6005 91.0646 72.7909C91.4649 72.9862 91.8724 73.0838 92.2874 73.0838C92.8585 73.0838 93.3198 72.9764 93.6712 72.7616C94.0276 72.5517 94.2863 72.2393 94.4474 71.8244C94.6084 71.4095 94.6865 70.8921 94.6817 70.2721V68.1634H94.8061V62.4888H95.7653V70.2868C95.7653 70.5113 95.758 70.7261 95.7434 70.9311C95.7336 71.141 95.7116 71.346 95.6775 71.5462C95.5847 72.1368 95.3919 72.6225 95.099 73.0033C94.811 73.384 94.4303 73.6671 93.9568 73.8526C93.4882 74.0381 92.9317 74.1308 92.2874 74.1308ZM92.2141 70.6163C91.4771 70.6163 90.8474 70.4332 90.3251 70.0671C89.8028 69.6961 89.4025 69.1958 89.1242 68.5661C88.846 67.9364 88.7069 67.2262 88.7069 66.4354C88.7069 65.6495 88.8436 64.9417 89.1169 64.312C89.3952 63.6823 89.793 63.1844 90.3104 62.8183C90.8278 62.4522 91.4478 62.2691 92.1702 62.2691C92.9122 62.2691 93.537 62.4498 94.0446 62.811C94.5523 63.1722 94.9355 63.6677 95.1942 64.2974C95.4578 64.9222 95.5896 65.6348 95.5896 66.4354C95.5896 67.2213 95.4602 67.9315 95.2015 68.5661C94.9428 69.1958 94.5621 69.6961 94.0593 70.0671C93.5565 70.4332 92.9415 70.6163 92.2141 70.6163ZM92.324 69.6131C92.8853 69.6131 93.3491 69.4765 93.7152 69.2031C94.0813 68.9298 94.3546 68.5539 94.5352 68.0755C94.7158 67.5923 94.8061 67.0456 94.8061 66.4354C94.8061 65.8155 94.7158 65.2687 94.5352 64.7953C94.3546 64.3169 94.0813 63.9435 93.7152 63.675C93.3539 63.4065 92.8975 63.2723 92.3459 63.2723C91.7797 63.2723 91.3111 63.4114 90.9401 63.6896C90.5691 63.9679 90.2933 64.3462 90.1127 64.8245C89.937 65.3029 89.8491 65.8399 89.8491 66.4354C89.8491 67.0358 89.9394 67.5776 90.12 68.0609C90.3055 68.5393 90.5813 68.9176 90.9474 69.1958C91.3135 69.474 91.7724 69.6131 92.324 69.6131ZM105.013 70.6163C103.963 70.6163 103.077 70.3844 102.355 69.9207C101.633 69.4521 101.086 68.8053 100.715 67.9803C100.344 67.1554 100.158 66.2035 100.158 65.1247C100.158 64.046 100.344 63.0941 100.715 62.2691C101.086 61.4442 101.633 60.7999 102.355 60.3361C103.077 59.8675 103.963 59.6332 105.013 59.6332C106.238 59.6332 107.239 59.9481 108.015 60.5778C108.791 61.2026 109.323 62.0422 109.611 63.0965L108.513 63.3821C108.288 62.5474 107.886 61.886 107.305 61.3978C106.724 60.9097 105.96 60.6656 105.013 60.6656C104.188 60.6656 103.502 60.8536 102.955 61.2294C102.409 61.6053 101.996 62.13 101.718 62.8037C101.445 63.4724 101.303 64.2461 101.293 65.1247C101.288 66.0034 101.423 66.7771 101.696 67.4458C101.974 68.1146 102.389 68.6393 102.941 69.0201C103.497 69.3959 104.188 69.5839 105.013 69.5839C105.96 69.5839 106.724 69.3398 107.305 68.8517C107.886 68.3586 108.288 67.6972 108.513 66.8674L109.611 67.1529C109.323 68.2073 108.791 69.0494 108.015 69.679C107.239 70.3039 106.238 70.6163 105.013 70.6163ZM114.573 70.6163C113.802 70.6163 113.133 70.4454 112.567 70.1037C112.005 69.762 111.568 69.2812 111.256 68.6613C110.944 68.0414 110.787 67.314 110.787 66.4793C110.787 65.6153 110.941 64.8685 111.249 64.2388C111.556 63.6091 111.988 63.1234 112.545 62.7817C113.106 62.44 113.767 62.2691 114.529 62.2691C115.31 62.2691 115.976 62.4498 116.528 62.811C117.079 63.1673 117.497 63.6799 117.78 64.3486C118.063 65.0174 118.192 65.8155 118.168 66.7429H117.07V66.3622C117.05 65.3371 116.828 64.5634 116.403 64.0411C115.984 63.5188 115.369 63.2576 114.558 63.2576C113.709 63.2576 113.057 63.5334 112.603 64.085C112.154 64.6366 111.93 65.4225 111.93 66.4427C111.93 67.4385 112.154 68.2122 112.603 68.7638C113.057 69.3105 113.699 69.5839 114.529 69.5839C115.095 69.5839 115.588 69.4545 116.008 69.1958C116.433 68.9322 116.767 68.5539 117.011 68.0609L118.014 68.4489C117.702 69.1372 117.241 69.6717 116.63 70.0525C116.025 70.4283 115.339 70.6163 114.573 70.6163ZM111.549 66.7429V65.8423H117.59V66.7429H111.549ZM119.793 70.3966V62.4888H120.759V64.3925L120.569 64.1436C120.657 63.9093 120.772 63.6945 120.913 63.4993C121.055 63.2991 121.209 63.1356 121.374 63.0087C121.579 62.8281 121.819 62.6914 122.092 62.5986C122.365 62.501 122.641 62.4449 122.919 62.4302C123.198 62.4107 123.451 62.4302 123.681 62.4888V63.4993C123.393 63.426 123.078 63.4089 122.736 63.448C122.395 63.487 122.08 63.6237 121.792 63.858C121.528 64.063 121.331 64.3096 121.199 64.5976C121.067 64.8807 120.979 65.1833 120.935 65.5055C120.891 65.8228 120.869 66.1376 120.869 66.45V70.3966H119.793ZM129.375 70.3966C128.931 70.4894 128.492 70.526 128.057 70.5064C127.628 70.4869 127.242 70.3942 126.9 70.2282C126.564 70.0622 126.307 69.8035 126.132 69.4521C125.99 69.1592 125.912 68.8639 125.897 68.5661C125.888 68.2635 125.883 67.9193 125.883 67.5337V60.2922H126.952V67.4898C126.952 67.8217 126.954 68.0999 126.959 68.3245C126.969 68.5441 127.02 68.7394 127.113 68.9102C127.289 69.2373 127.567 69.4325 127.947 69.496C128.333 69.5595 128.809 69.5448 129.375 69.4521V70.3966ZM124.191 63.4114V62.4888H129.375V63.4114H124.191ZM131.08 60.9878V59.7797H132.156V60.9878H131.08ZM131.08 70.3966V62.4888H132.156V70.3966H131.08ZM135.135 70.3966V61.903C135.135 61.698 135.144 61.4955 135.164 61.2953C135.188 61.0952 135.235 60.9048 135.303 60.7242C135.371 60.5387 135.479 60.3679 135.625 60.2117C135.786 60.0359 135.962 59.909 136.152 59.8309C136.343 59.7479 136.54 59.6942 136.745 59.6698C136.955 59.6454 137.16 59.6332 137.361 59.6332H138.371V60.5411H137.434C137.024 60.5411 136.716 60.6412 136.511 60.8414C136.311 61.0415 136.211 61.3563 136.211 61.7859V70.3966H135.135ZM133.765 63.4114V62.4888H138.371V63.4114H133.765ZM139.909 60.9878V59.7797H140.985V60.9878H139.909ZM139.909 70.3966V62.4888H140.985V70.3966H139.909ZM146.521 70.6163C145.75 70.6163 145.081 70.4454 144.515 70.1037C143.953 69.762 143.517 69.2812 143.204 68.6613C142.892 68.0414 142.735 67.314 142.735 66.4793C142.735 65.6153 142.889 64.8685 143.197 64.2388C143.504 63.6091 143.936 63.1234 144.493 62.7817C145.054 62.44 145.716 62.2691 146.477 62.2691C147.258 62.2691 147.924 62.4498 148.476 62.811C149.028 63.1673 149.445 63.6799 149.728 64.3486C150.011 65.0174 150.141 65.8155 150.116 66.7429H149.018V66.3622C148.998 65.3371 148.776 64.5634 148.351 64.0411C147.932 63.5188 147.317 63.2576 146.506 63.2576C145.657 63.2576 145.005 63.5334 144.551 64.085C144.102 64.6366 143.878 65.4225 143.878 66.4427C143.878 67.4385 144.102 68.2122 144.551 68.7638C145.005 69.3105 145.647 69.5839 146.477 69.5839C147.043 69.5839 147.536 69.4545 147.956 69.1958C148.381 68.9322 148.715 68.5539 148.959 68.0609L149.962 68.4489C149.65 69.1372 149.189 69.6717 148.578 70.0525C147.973 70.4283 147.287 70.6163 146.521 70.6163ZM143.497 66.7429V65.8423H149.538V66.7429H143.497ZM154.809 70.6163C154.072 70.6163 153.442 70.4332 152.92 70.0671C152.398 69.6961 151.997 69.1958 151.719 68.5661C151.441 67.9364 151.302 67.2262 151.302 66.4354C151.302 65.6495 151.438 64.9417 151.712 64.312C151.99 63.6823 152.388 63.1844 152.905 62.8183C153.423 62.4522 154.043 62.2691 154.765 62.2691C155.507 62.2691 156.132 62.4498 156.639 62.811C157.147 63.1722 157.53 63.6677 157.789 64.2974C158.053 64.9222 158.184 65.6348 158.184 66.4354C158.184 67.2213 158.055 67.9315 157.796 68.5661C157.538 69.1958 157.157 69.6961 156.654 70.0671C156.151 70.4332 155.536 70.6163 154.809 70.6163ZM154.919 69.6131C155.48 69.6131 155.944 69.4765 156.31 69.2031C156.676 68.9298 156.949 68.5539 157.13 68.0755C157.311 67.5923 157.401 67.0456 157.401 66.4354C157.401 65.8155 157.311 65.2687 157.13 64.7953C156.949 64.3169 156.676 63.9435 156.31 63.675C155.949 63.4065 155.492 63.2723 154.941 63.2723C154.375 63.2723 153.906 63.4114 153.535 63.6896C153.164 63.9679 152.888 64.3462 152.708 64.8245C152.532 65.3029 152.444 65.8399 152.444 66.4354C152.444 67.0358 152.534 67.5776 152.715 68.0609C152.9 68.5393 153.176 68.9176 153.542 69.1958C153.908 69.474 154.367 69.6131 154.919 69.6131ZM157.401 70.3966V64.4438H157.284V59.8529H158.367V70.3966H157.401Z" fill="white"/>
</g>
<defs>
<clipPath id="clip0_2_72">
<rect width="219.661" height="72" fill="white" transform="translate(40.1694 9)"/>
</clipPath>
</defs>
</svg>
