<svg width="300" height="90" viewBox="0 0 300 90" fill="none" xmlns="http://www.w3.org/2000/svg">
<g clip-path="url(#clip0_2_71)">
<path d="M70.455 70.54C74.515 74.47 79.015 77.94 83.905 80.83C84.295 81.06 84.795 81.06 85.185 80.83C99.335 72.45 110.375 59.37 116.165 43.74C116.385 43.15 115.835 42.53 115.225 42.67C95.195 47.22 80.925 57.63 70.415 69.41C70.125 69.73 70.145 70.23 70.455 70.53V70.54Z" fill="white"/>
<path d="M46.955 50.84C50.265 57.83 53.925 63.72 58.795 69.61C59.115 70 59.715 69.99 60.035 69.59C66.355 61.7 74.545 55.46 83.445 49.92C95.795 42.23 110.515 37.03 125.365 35.15C125.865 35.09 126.285 34.73 126.405 34.24C126.895 32.13 127.005 31.74 127.345 29.71C127.415 29.28 127.145 28.86 126.715 28.78C102.925 23.89 71.955 26.3 47.235 49.38C46.835 49.75 46.725 50.35 46.955 50.84Z" fill="white"/>
<path d="M119.865 21.99C119.865 21.99 119.925 21.99 119.965 21.99C120.305 21.99 120.565 21.72 120.585 21.37C120.605 20.71 120.625 19.94 120.635 19.39C120.635 18.93 120.405 18.51 120.005 18.29C109.535 12.38 97.435 9 84.545 9C71.655 9 59.565 12.39 49.085 18.31C48.695 18.53 48.445 18.96 48.455 19.41C48.515 25.2 49.265 30.82 50.605 36.2C50.705 36.61 51.195 36.79 51.545 36.55C56.265 33.35 61.285 30.6 66.535 28.35C71.745 26.11 77.165 24.37 82.705 23.14C88.755 21.79 94.935 21.01 101.135 20.85C107.395 20.69 113.675 21.07 119.875 22L119.865 21.99Z" fill="white"/>
<path d="M135.795 69.12C135.795 66.75 136.245 64.68 137.155 62.92C138.065 61.16 139.345 59.8 141.005 58.84C142.665 57.88 144.665 57.4 146.995 57.4C149.325 57.4 151.295 57.88 152.975 58.84C154.645 59.8 155.945 61.16 156.875 62.92C157.805 64.68 158.265 66.73 158.265 69.08C158.265 71.43 157.805 73.52 156.885 75.29C155.965 77.06 154.665 78.43 152.985 79.4C151.305 80.37 149.305 80.86 146.995 80.86C144.685 80.86 142.695 80.37 141.015 79.4C139.345 78.43 138.055 77.06 137.145 75.29C136.235 73.52 135.785 71.46 135.785 69.11L135.795 69.12ZM141.075 69.12C141.075 71.47 141.575 73.31 142.565 74.64C143.555 75.97 145.035 76.63 147.005 76.63C148.975 76.63 150.425 75.97 151.445 74.64C152.455 73.31 152.965 71.47 152.965 69.12C152.965 66.77 152.465 64.91 151.455 63.6C150.455 62.29 148.965 61.64 147.005 61.64C145.045 61.64 143.565 62.29 142.565 63.6C141.575 64.91 141.075 66.74 141.075 69.12Z" fill="white"/>
<path d="M175.935 65.4801C174.975 64.3701 173.535 63.8101 171.615 63.8101C170.325 63.8101 169.175 64.1101 168.165 64.7001C167.345 65.1901 166.685 65.8401 166.175 66.6601L165.955 64.7801C165.915 64.4301 165.615 64.1701 165.265 64.1701H161.805C161.455 64.1701 161.195 64.4701 161.245 64.8201C161.305 65.3001 161.345 65.7901 161.365 66.2801C161.395 66.9901 161.415 67.7001 161.415 68.4201V79.8701C161.415 80.2501 161.725 80.5601 162.105 80.5601H165.615C165.995 80.5601 166.305 80.2501 166.305 79.8701V71.3701C166.305 70.2301 166.635 69.3101 167.295 68.6401C167.955 67.9601 168.825 67.6201 169.905 67.6201C170.745 67.6201 171.385 67.8701 171.835 68.3601C172.275 68.8601 172.495 69.7001 172.495 70.8801V79.8701C172.495 80.2501 172.805 80.5601 173.185 80.5601H176.695C177.075 80.5601 177.385 80.2501 177.385 79.8701V70.6601C177.385 68.3301 176.905 66.6101 175.945 65.5001L175.935 65.4801Z" fill="white"/>
<path d="M210.195 64.1701H206.745C206.395 64.1701 206.105 64.4301 206.065 64.7801L205.835 66.6401C205.445 65.9001 204.855 65.2901 204.045 64.7901C202.995 64.1401 201.815 63.8201 200.495 63.8201C199.075 63.8201 197.815 64.1601 196.735 64.8401C195.655 65.5201 194.815 66.5001 194.205 67.7701C193.595 69.0401 193.295 70.5601 193.295 72.3301C193.295 74.1001 193.595 75.6301 194.185 76.9301C194.775 78.2201 195.625 79.2101 196.715 79.8701C197.805 80.5401 199.065 80.8701 200.485 80.8701C201.775 80.8701 202.945 80.5601 203.985 79.9501C204.725 79.5101 205.285 78.9601 205.675 78.3001L205.695 79.9801C205.695 80.2901 205.955 80.5401 206.265 80.5401H209.985C210.295 80.5401 210.555 80.2801 210.555 79.9701V68.4001C210.555 67.6901 210.575 66.9801 210.615 66.2601C210.645 65.7601 210.685 65.2701 210.735 64.7901C210.775 64.4501 210.515 64.1601 210.175 64.1601L210.195 64.1701ZM204.715 76.0301C204.025 76.8201 203.115 77.2101 201.995 77.2101C200.875 77.2101 199.935 76.8201 199.255 76.0301C198.575 75.2401 198.235 74.0101 198.235 72.3201C198.235 70.6301 198.575 69.4301 199.275 68.6501C199.965 67.8601 200.875 67.4701 201.995 67.4701C203.115 67.4701 204.025 67.8601 204.715 68.6501C205.405 69.4401 205.755 70.6601 205.755 72.3201C205.755 73.9801 205.405 75.2401 204.715 76.0301Z" fill="white"/>
<path d="M228.035 60.88V57.97C228.035 57.66 228.295 57.4 228.605 57.4H232.745C233.055 57.4 233.315 57.66 233.315 57.97V60.88C233.315 61.19 233.055 61.45 232.745 61.45H228.605C228.295 61.45 228.035 61.19 228.035 60.88ZM228.195 79.97V64.73C228.195 64.42 228.455 64.16 228.765 64.16H232.515C232.825 64.16 233.085 64.42 233.085 64.73V79.97C233.085 80.28 232.825 80.54 232.515 80.54H228.765C228.455 80.54 228.195 80.28 228.195 79.97Z" fill="white"/>
<path d="M244.545 80.8701C242.795 80.8701 241.275 80.5301 239.995 79.8301C238.715 79.1401 237.715 78.1601 237.015 76.8801C236.315 75.6101 235.965 74.0901 235.965 72.3201C235.965 70.5501 236.315 69.0401 237.015 67.7901C237.715 66.5401 238.705 65.5601 239.995 64.8601C241.275 64.1601 242.805 63.8101 244.575 63.8101C246.345 63.8101 247.845 64.1601 249.125 64.8601C250.405 65.5601 251.405 66.5501 252.105 67.8201C252.805 69.0901 253.155 70.5901 253.155 72.3201C253.155 74.0501 252.805 75.6101 252.105 76.8801C251.405 78.1501 250.415 79.1301 249.125 79.8301C247.845 80.5201 246.315 80.8701 244.545 80.8701ZM244.575 77.2101C245.675 77.2101 246.565 76.8201 247.235 76.0301C247.905 75.2401 248.235 74.0201 248.235 72.3601C248.235 70.7001 247.905 69.4401 247.235 68.6501C246.565 67.8601 245.685 67.4701 244.575 67.4701C243.465 67.4701 242.555 67.8601 241.885 68.6501C241.215 69.4401 240.885 70.6701 240.885 72.3601C240.885 74.0501 241.215 75.2501 241.875 76.0301C242.535 76.8201 243.435 77.2101 244.575 77.2101Z" fill="white"/>
<path d="M225.415 63.9101C225.345 63.8901 225.265 63.8701 225.195 63.8601C224.965 63.8301 224.625 63.8101 224.175 63.8101C223.265 63.8101 222.455 63.9901 221.735 64.3601C221.015 64.7301 220.405 65.2901 219.925 66.0401C219.735 66.3401 219.575 66.6701 219.425 67.0301L219.145 64.7601C219.105 64.4101 218.805 64.1501 218.465 64.1501H215.005C214.655 64.1501 214.395 64.4501 214.445 64.8001C214.505 65.2901 214.545 65.7801 214.565 66.2901C214.595 67.0201 214.615 67.7601 214.615 68.4901V79.9601C214.615 80.2701 214.875 80.5301 215.185 80.5301H218.995C219.305 80.5301 219.565 80.2701 219.565 79.9601V72.3401C219.565 71.4101 219.695 70.6101 219.965 69.9301C220.235 69.2501 220.675 68.7401 221.295 68.3901C221.905 68.0501 222.675 67.8701 223.575 67.8701C224.025 67.8701 224.405 67.9001 224.725 67.9501C224.855 67.9701 225.005 68.0201 225.165 68.0601C225.165 68.0601 225.265 68.0801 225.315 68.0801C225.625 68.0801 225.875 67.8301 225.885 67.5201L225.935 64.5501C225.935 64.2401 225.725 63.9701 225.435 63.8901L225.415 63.9101Z" fill="white"/>
<path d="M191.435 79.9301V77.3801C191.435 77.0701 191.175 76.8101 190.865 76.8101C190.815 76.8101 190.765 76.8101 190.715 76.8301C190.675 76.8401 190.635 76.8501 190.585 76.8601C190.305 76.9301 189.965 76.9601 189.585 76.9601C188.895 76.9601 188.335 76.7601 187.905 76.3701C187.475 75.9801 187.255 75.2301 187.255 74.1901V67.7701H190.895C191.205 67.7701 191.465 67.5101 191.465 67.2001V64.7501C191.465 64.4401 191.205 64.1801 190.895 64.1801H187.255V60.0101C187.255 59.7001 186.995 59.4401 186.685 59.4401H182.935C182.625 59.4401 182.365 59.7001 182.365 60.0101V64.1801H179.825C179.515 64.1801 179.255 64.4401 179.255 64.7501V67.2001C179.255 67.5101 179.515 67.7701 179.825 67.7701H182.365V74.4201C182.365 76.5901 182.905 78.2101 183.985 79.2801C185.065 80.3501 186.675 80.8801 188.805 80.8801C189.235 80.8801 189.675 80.8501 190.135 80.7801C190.435 80.7401 190.725 80.6601 191.005 80.5701C191.255 80.4701 191.435 80.2301 191.435 79.9401V79.9301Z" fill="white"/>
<path d="M212.135 51.01V19.53C212.135 19.15 212.445 18.84 212.825 18.84H218.725C219.105 18.84 219.415 19.15 219.415 19.53V51.01C219.415 51.39 219.105 51.7 218.725 51.7H212.825C212.445 51.7 212.135 51.39 212.135 51.01Z" fill="white"/>
<path d="M251.235 37.02C250.205 35.91 248.835 35.14 247.135 34.69C248.515 34.17 249.645 33.39 250.535 32.36C251.705 30.99 252.285 29.31 252.285 27.33C252.285 24.69 251.305 22.62 249.345 21.11C247.385 19.6 244.605 18.85 240.995 18.85H226.525C226.145 18.85 225.835 19.16 225.835 19.54V51.02C225.835 51.4 226.145 51.71 226.525 51.71H241.505C245.145 51.71 247.995 50.89 250.065 49.26C252.135 47.63 253.165 45.37 253.165 42.48C253.165 40.24 252.515 38.42 251.225 37.03L251.235 37.02ZM232.785 24.82C232.785 24.51 233.045 24.25 233.355 24.25H239.685C241.585 24.25 242.985 24.58 243.905 25.25C244.825 25.92 245.285 26.94 245.285 28.3C245.285 29.66 244.825 30.64 243.905 31.31C242.985 31.98 241.575 32.31 239.685 32.31H233.355C233.045 32.31 232.785 32.05 232.785 31.74V24.82ZM244.775 45.27C243.815 45.92 242.425 46.25 240.625 46.25H233.355C233.045 46.25 232.785 45.99 232.785 45.68V38.29C232.785 37.98 233.045 37.72 233.355 37.72H240.625C242.425 37.72 243.815 38.05 244.775 38.72C245.735 39.39 246.225 40.5 246.225 42.05C246.225 43.6 245.745 44.61 244.775 45.27Z" fill="white"/>
<path d="M205.155 36.18C203.645 34.72 201.375 33.68 198.325 33.06L192.875 31.99C191.225 31.68 190.075 31.23 189.425 30.64C188.775 30.05 188.445 29.29 188.445 28.36C188.445 27.09 188.985 26.11 190.055 25.42C191.125 24.74 192.675 24.39 194.695 24.39C196.715 24.39 198.365 24.64 199.935 25.14C201.285 25.57 202.525 26.21 203.675 27.05C203.895 27.2 204.195 27.15 204.395 26.96C204.455 26.9 204.495 26.82 204.525 26.75L206.165 22.52C206.255 22.29 206.205 22.03 206.035 21.83C204.775 20.8 203.225 19.97 201.355 19.36C199.335 18.71 197.155 18.38 194.825 18.38C192.125 18.38 189.755 18.81 187.715 19.66C185.675 20.51 184.095 21.73 182.965 23.3C181.835 24.87 181.265 26.7 181.265 28.78C181.265 31.27 182.015 33.26 183.525 34.77C185.035 36.28 187.295 37.34 190.305 37.96L195.715 39.08C197.455 39.42 198.635 39.84 199.255 40.34C199.875 40.84 200.185 41.57 200.185 42.53C200.185 43.62 199.715 44.5 198.765 45.16C197.815 45.83 196.225 46.16 193.985 46.16C192.555 46.16 191.185 46.03 189.855 45.76C188.535 45.5 187.295 45.12 186.125 44.64C185.165 44.25 184.255 43.78 183.365 43.25C183.285 43.2 183.185 43.18 183.075 43.18C182.835 43.18 182.625 43.33 182.545 43.55L180.845 48.03C180.815 48.11 180.795 48.19 180.795 48.28C180.795 48.39 180.815 48.5 180.855 48.59C180.885 48.66 180.935 48.72 180.995 48.77C182.545 49.81 184.375 50.63 186.515 51.23C188.815 51.87 191.295 52.19 193.975 52.19C196.655 52.19 199.035 51.77 201.035 50.93C203.035 50.09 204.605 48.9 205.715 47.36C206.835 45.82 207.395 44.04 207.395 42.02C207.395 39.6 206.645 37.65 205.135 36.19L205.155 36.18Z" fill="white"/>
<path d="M154.865 18.84C154.565 18.84 154.305 19.03 154.205 19.31L147.735 39.02L141.955 19.33C141.865 19.04 141.595 18.83 141.295 18.83H135.035C134.645 18.83 134.375 19.2 134.495 19.57L144.555 51.38C144.615 51.57 144.785 51.7 144.985 51.7H149.335C149.525 51.7 149.705 51.58 149.765 51.39L157.215 29.76L164.665 51.39C164.725 51.57 164.905 51.7 165.095 51.7H169.445C169.645 51.7 169.815 51.57 169.875 51.38L179.935 19.57C180.055 19.2 179.775 18.83 179.395 18.83H173.135C172.825 18.83 172.555 19.03 172.475 19.33L166.695 39.02L160.225 19.31C160.135 19.03 159.865 18.84 159.565 18.84H154.865Z" fill="white"/>
</g>
<defs>
<clipPath id="clip0_2_71">
<rect width="206.33" height="72" fill="white" transform="translate(46.835 9)"/>
</clipPath>
</defs>
</svg>
